<?xml version="1.0" encoding="UTF-8" standalone="no"?>
<svg id="svg2" xmlns:rdf="http://www.w3.org/1999/02/22-rdf-syntax-ns#" xmlns="http://www.w3.org/2000/svg" viewBox="0 0 640 381.7" version="1.1" xmlns:cc="http://creativecommons.org/ns#" xmlns:dc="http://purl.org/dc/elements/1.1/">
 <defs id="defs4"></defs>
 <metadata id="metadata7">
  <rdf:RDF>
   <cc:Work rdf:about="">
    <dc:format>image/svg+xml</dc:format>
    <dc:type rdf:resource="http://purl.org/dc/dcmitype/StillImage"/>
    <dc:title/>
   </cc:Work>
  </rdf:RDF>
 </metadata>
 <g id="layer1" transform="translate(-60.134146,-42.414169)">
  <g id="g2830" transform="matrix(0.52776808,0,0,0.52776808,174.66442,35.917024)">
   <path id="path2834" fill="#06af06" d="m334.25,733.96c-0.29623-0.77195-0.34904-2.2344-0.11737-3.25,1.1065-4.8502,15.961-142.03,22.507-207.85,1.221-12.277,3.8364-30.531,4.5368-31.664,0.62476-1.0109,56.399-1.1357,56.399-0.12617,0,0.39032,0.66415,6.3528,1.4759,13.25,0.81174,6.8972,2.3819,21.09,3.4893,31.54,8.681,81.922,11.156,105.09,12.019,112.5,4.2964,36.911,9.0852,84.378,8.6318,85.559-0.81882,2.1338-108.12,2.1705-108.94,0.0373zm38.718-44.178c0.33385-0.86998,0.60699-41.82,0.60699-91v-89.418h-4.4547c-4.2487,0-4.4796,0.15026-4.9929,3.25-0.79689,4.8116-17.552,172.85-17.552,176.03v2.721h12.893c10.834,0,12.99-0.25258,13.5-1.5818zm56.175,0.26406c0.84271-2.1961-14.589-179-15.745-180.39-1.6134-1.944-7.5773-1.6259-8.6659,0.46219-0.94411,1.8108-2.2593,179.82-1.3354,180.74,0.28092,0.28092,6.0749,0.51076,12.875,0.51076,9.3082,0,12.49-0.32574,12.87-1.3177zm-563.43-130.77c-34.859-3.8583-58.834-20.429-74.382-51.411-4.8341-9.6328-9.3627-23.293-8.1306-24.525,1.146-1.146,46.919-13.942,49.943-13.962,1.6466-0.0107,2.4312,1.1568,3.8554,5.7366,4.8223,15.508,14.841,27.841,26.293,32.366,4.747,1.8759,7.7576,2.2946,16.785,2.3348,9.8116,0.0437,11.594-0.23089,16.5-2.5412,7.4181-3.4935,11.627-7.2393,14.497-12.903,5.4268-10.709,3.9708-21.934-3.9944-30.793-5.4964-6.1133-16.114-11.776-36.002-19.202-19.276-7.197-42.702-18.772-49.976-24.695-8.2394-6.7084-14.842-15.185-20.109-25.817-5.5667-11.236-7.3754-19.742-7.3975-34.792-0.0283-19.248,3.7854-33.074,12.977-47.047,4.5318-6.8893,14.175-16.918,20.563-21.385,5.9153-4.1363,17.14-9.185,25.497-11.468,7.536-2.059,10.547-2.2998,27.946-2.2344,17.779,0.0668,20.365,0.30558,29.304,2.706,24.698,6.6325,41.161,19.612,52.277,41.213,5.0658,9.8449,8.1847,19.149,6.8566,20.455-1.056,1.0379-46.329,18.052-48.037,18.052-0.60499,0.00027-2.3405-2.9182-3.8566-6.4856-1.5161-3.5673-4.4801-8.8929-6.5866-11.835-11.1-15.501-33.208-20.247-47.722-10.245-13.179,9.0823-13.692,29.173-0.9774,38.275,6.3063,4.514,20.515,11.391,38.857,18.807,19.044,7.6999,33.367,14.699,41.807,20.431,22.655,15.385,34.509,40.882,32.765,70.478-2.4246,41.164-30.002,71.459-71.898,78.984-11.064,1.9872-27.382,2.6377-37.652,1.501zm960.32-1.1606c-0.2617-0.6875-0.36-63.125-0.2187-138.75l0.2571-137.5,83.937-0.25575c66.489-0.20259,84.103,0.005,84.735,1,1.3543,2.1332,1.0109,44.173-0.3721,45.556-0.903,0.90304-14.27,1.2-54.014,1.2h-52.814l0.2641,31.75,0.264,31.75,40.948,0.26138c31.232,0.19937,41.135,0.55528,41.735,1.5,0.4327,0.68124,0.7867,10.914,0.7867,22.739s-0.354,22.057-0.7867,22.739c-0.6,0.94472-10.502,1.3006-41.735,1.5l-40.948,0.26138-0.2633,33.75-0.2633,33.75h52.813c39.744,0,53.11,0.29696,54.013,1.2,1.2683,1.2682,1.8056,44.058,0.593,47.218-0.5468,1.425-8.9258,1.5818-84.531,1.5818-66.219,0-84.025-0.26371-84.4-1.25zm-834.99-19.99c-0.2632-0.69-0.3627-53.68-0.2212-117.76l0.25739-116.5h71.5,71.5v20,20l-45.25,0.26019-45.25,0.26019v26.99,26.99h34.378c28.004,0,34.59,0.25576,35.522,1.3796,0.79314,0.95568,1.0612,7.178,0.87245,20.25l-0.27251,18.87-35,0.5-35,0.5-0.80876,27.327c-0.60555,20.461-0.5141,27.682,0.36397,28.74,0.97221,1.1714,8.8046,1.4575,45.809,1.6733l44.636,0.26022v20.5,20.5l-71.279,0.25667c-56.493,0.20343-71.378-0.004-71.757-1zm692,0.0008c-0.26338-0.69161-0.36304-53.682-0.22148-117.76l0.25739-116.5,25.75-0.26688,25.75-0.26688v94.817c0,72.413,0.28354,95.1,1.2,96.017,0.88988,0.88988,10.715,1.2,38.02,1.2h36.82l-0.2695,21.75-0.2695,21.75-63.279,0.25747c-50.092,0.20381-63.378-0.005-63.757-1zm-534.47-31.98c0-1.4723,48.651-169.33,50.005-172.53,0.93966-2.2204,1.201-2.25,19.851-2.25,14.33,0,19.161,0.3157,19.983,1.3058,1.2145,1.4634,53.161,170.66,53.161,173.15,0,1.4033-2.0798,1.5576-17.75,1.3165l-17.75-0.27307-4.1448-16.845c-2.2796-9.2646-4.5603-17.26-5.0682-17.768-0.52905-0.52905-11.33-0.80885-25.293-0.65519l-24.37,0.26819-4.1518,16.586c-2.2835,9.1224-4.4754,17.11-4.871,17.75-1.0503,1.6994-39.601,1.6466-39.601-0.0542zm90.41-65.64c0.535-0.86565-15.024-66.086-15.998-67.06-0.28801-0.288-0.83669-0.0147-1.2193,0.60731-1.4711,2.3917-16.389,64.364-15.839,65.798,0.48485,1.2635,3.216,1.5132,16.553,1.5132,8.7848,0,16.211-0.38634,16.503-0.85854zm271.18,66.012c-0.48412-0.78332,50.113-167.87,52.359-172.9,0.98976-2.2186,1.2679-2.25,19.903-2.25,13.913,0,19.166,0.32976,19.91,1.25,1.2779,1.5798,50.234,169.9,50.234,172.71,0,2.0456-0.32701,2.0756-19.688,1.809l-19.688-0.27114-4.2195-16.858c-2.3207-9.2718-4.6292-17.267-5.13-17.768-0.51256-0.51256-11.579-0.79324-25.322-0.64225l-24.411,0.26819-4.0205,16.508c-2.2113,9.0794-4.3845,17.067-4.8295,17.75-0.94366,1.4488-34.214,1.8232-35.096,0.39503zm85.916-66.403c0.684-1.9104-15.869-66.266-17.01-66.135-1.2513,0.14413-16.85,64.031-16.106,65.968,0.7463,1.9448,32.423,2.1044,33.117,0.16676zm-163.49,46.709c-16.527-4.6275-28.561-19.764-33.064-41.587-2.1865-10.597-2.6536-32.88-0.91973-43.872,3.8096-24.152,15.75-40.586,32.96-45.365,23.483-6.5205,43.81,1.0449,53.008,19.729,3.6758,7.4666,7.819,26.209,6.1605,27.867-1.183,1.183-22.535,3.2252-24.767,2.3688-0.81248-0.31177-1.4013-1.9332-1.4013-3.859,0-5.3763-2.8893-14.908-5.5939-18.454-6.5756-8.6211-17.761-8.302-24.277,0.69253-3.9382,5.4365-6.0555,15.056-6.7982,30.885-1.0854,23.132,2.002,39.247,8.759,45.721,2.4577,2.3546,3.9967,2.8882,9.3043,3.2262,6.1703,0.39289,6.482,0.29426,10.477-3.3148,3.1635-2.858,4.5819-5.2241,6.1232-10.214,1.1032-3.5719,2.0059-7.3245,2.0059-8.3393,0-1.0147,0.65638-2.2123,1.4586-2.6612,1.6349-0.91496,22.884,0.19233,24.651,1.2846,2.9516,1.8242-2.2132,20.362-8.0274,28.813-4.5704,6.6429-12.537,13.266-18.88,15.696-7.5322,2.8855-23.31,3.5848-31.177,1.382zm-114.92-3.0412c-12.059-3.2428-22.579-11.845-28.032-22.921-4.2458-8.6244-4.0892-10.156,1.1772-11.52,2.3375-0.60531,7.4287-1.9726,11.314-3.0386,3.8851-1.0659,7.7457-1.938,8.5791-1.938,0.84256,0,2.5714,2.2548,3.8941,5.079,4.431,9.4604,11.444,13.442,22.442,12.741,7.9211-0.50438,12.851-3.8502,14.683-9.966,1.0798-3.6041,0.99408-4.517-0.71773-7.6427-2.8353-5.1772-5.4545-6.713-21.485-12.598-7.9526-2.9195-16.417-6.3089-18.809-7.5321-6.1578-3.1486-12.306-9.1296-15.721-15.293-2.7428-4.9509-2.9295-5.9905-2.9253-16.288,0.004-9.5552,0.31573-11.628,2.3742-15.78,3.2701-6.5961,9.9759-13.779,15.848-16.975,13.863-7.5454,36.559-7.7019,51.062-0.35231,7.9734,4.0404,18.211,16.672,18.211,22.469,0,1.2803-1.1074,2.3473-3.25,3.1315-11.132,4.0744-20.102,6.9066-20.701,6.5362-0.38235-0.23631-1.9229-2.3719-3.4234-4.7458-3.3852-5.3555-8.2736-8.7933-13.501-9.4944-6.0492-0.81137-10.717,0.45613-14.086,3.8251-2.4283,2.4283-3.0389,3.8897-3.0389,7.2734,0,7.0495,3.7462,9.685,25,17.588,15.074,5.6055,20.236,8.278,25.68,13.296,8.445,7.7844,12.307,19.392,10.441,31.378-1.3476,8.6558-4.4543,14.778-10.655,20.998-9.4312,9.4601-20.726,13.357-38.466,13.271-5.8591-0.0285-12.885-0.69232-15.895-1.5019zm45.1-134.62c-0.66-0.66-1.2207-2.5725-1.246-4.25s-5.0968-38.363-11.27-81.523c-11.099-77.602-11.251-78.486-13.704-79.705-1.3641-0.67766-5.1802-1.8149-8.4802-2.5272-6.6588-1.4373-6.1271-0.76929-13.765-17.295l-3.2352-7-6-1.1524c-3.3-0.63385-9.2852-1.6908-13.3-2.3488-4.6391-0.76026-7.1607-1.6154-6.9173-2.3457,0.2107-0.63212,4.0408-2.5001,8.5114-4.1512,10.022-3.7012,10.465-4.1115,9.2031-8.5129-0.72256-2.5194-0.6536-3.7553,0.25967-4.6536,2.0805-2.0465,27.305-11.705,43.744-16.749,8.525-2.616,16.062-5.4791,16.75-6.3623,0.83004-1.0663,1.25-5.3693,1.25-12.808,0-13.003-0.50183-12.416,10.613-12.416,5.0739,0,7.5806-0.39863,7.8605-1.25,0.22599-0.6875,1.1024-16.148,1.9476-34.356s1.9676-34.183,2.4943-35.5c0.52668-1.3166,1.0218-2.1689,1.1002-1.8939s1.1686,16.303,2.4226,35.618,2.5949,35.627,2.9798,36.25c0.41097,0.66497,3.5307,1.1323,7.559,1.1323,10.483,0,10.023-0.59627,10.023,12.985,0,8.2414,0.37479,12.056,1.25,12.724,0.6875,0.5243,9.9984,3.7749,20.691,7.2235,10.692,3.4486,24.08,8.337,29.75,10.863l10.309,4.5927v4.6992c0,3.5439,0.43024,4.8702,1.75,5.3945,0.9625,0.38241,4.9,1.828,8.75,3.2124,6.8934,2.4788,9.3056,3.8341,8.4129,4.7268-0.24959,0.2496-6.0696,1.4001-12.933,2.5567-6.8637,1.1566-13.261,2.3384-14.217,2.6262-1.1783,0.35491-2.5615,3.3178-4.2996,9.2099-3.9477,13.382-3.4608,12.737-10.625,14.077-3.4863,0.65193-7.5799,1.4299-9.097,1.7288-1.5171,0.29893-3.2137,1.3944-3.7703,2.4344-0.55658,1.04-6.1866,35.541-12.511,76.669-13.194,85.802-13.287,86.356-14.67,88.028-1.4491,1.7506-45.843,1.7973-47.59,0.05zm13.993-48.419c1.107-0.68416,1.0208-22.141-0.2907-72.381-0.6102-23.375-1.4826-42.733-1.9387-43.018-0.4561-0.28471-6.7109-0.65504-13.9-0.82295-11.256-0.26291-13.156-0.0825-13.686,1.2991-0.59217,1.5432,2.289,22.563,10.697,78.042,6.1766,40.753,5.5862,39.068,13.324,38.041,2.7423-0.36378,5.3493-0.88598,5.7934-1.1604zm33.367,0.52331c1.0451-1.6909,19.482-114.23,18.951-115.68-0.35684-0.97339-3.8663-1.2115-14.739-1l-14.271,0.27758-0.31467,33c-0.17307,18.15-0.0105,44.338,0.36132,58.195,0.66231,24.685,0.7193,25.204,2.8147,25.614,4.1502,0.81267,6.5281,0.67902,7.1978-0.40454z"/>
   <path id="path2832" fill="#0b0b0b" d="m334.57,732.6c0-0.97002,0.89376-8.9575,1.9861-17.75,1.8876-15.193,13.157-120.03,18.54-172.49,2.5968-25.301,5.2627-47.179,6.125-50.266,0.45857-1.6415,2.4402-1.747,28.171-1.5l27.678,0.26569,0.63812,6c0.35096,3.3,2.7187,25.125,5.2617,48.5s7.1048,65.675,10.138,94c3.0327,28.325,6.5666,60.95,7.8531,72.5s2.1484,21.338,1.9153,21.75c-0.23308,0.4125-24.697,0.75-54.365,0.75-50.865,0-53.941-0.10057-53.941-1.7637zm37.659-41.005c1.7792-1.1321,3.1198-179.59,1.365-181.7-1.5284-1.8416-7.3679-2.0267-8.814-0.27938-1.6375,1.9785-19.316,179.92-18.029,181.47,1.1715,1.4116,23.364,1.8586,25.478,0.51317zm57.098-0.48167c0.67952-0.84748-0.3948-17.512-3.3363-51.75-2.3862-27.775-5.7404-67.15-7.4537-87.5-1.7134-20.35-3.448-38.35-3.8549-40-0.69734-2.8283-1.0222-3-5.6761-3h-4.9364l-0.61589,31.5c-0.33874,17.325-0.67624,58.35-0.75,91.167-0.10541,46.899,0.13337,59.775,1.1159,60.171,0.6875,0.27741,6.4824,0.53991,12.878,0.58333,8.1828,0.0556,11.924-0.29137,12.63-1.171zm-66.281-343c-0.25359-0.6875-5.6262-37.638-11.939-82.112-6.3129-44.474-11.966-81.45-12.563-82.169-0.59656-0.71881-4.109-1.8171-7.8055-2.4406-3.6965-0.62349-7.2546-1.4635-7.9069-1.8666-0.65234-0.40317-3.2652-5.442-5.8064-11.197-2.5412-5.7554-5.0063-10.865-5.4781-11.355-0.47182-0.48964-6.3972-1.8396-13.168-3-6.7704-1.1604-12.2-2.5598-12.067-3.1098,0.13358-0.55,3.9586-2.3754,8.5-4.0565l8.2571-3.0565-0.26911-5.0818-0.26911-5.0817,15.269-5.9995c8.398-3.2997,21.569-7.903,29.269-10.229,7.7-2.3265,14.774-4.6355,15.719-5.1311,1.4577-0.76394,1.7621-2.7628,2-13.132l0.28063-12.231,9-0.5,9-0.5,0.63526-7c0.3494-3.85,1.2009-18.475,1.8923-32.5,1.965-39.862,2.8968-38.524,5.5698,8,0.90061,15.675,2.0505,29.288,2.5552,30.25,0.75696,1.4434,2.3133,1.75,8.8826,1.75h7.9648v11.309c0,7.5483,0.41566,11.828,1.25,12.869,0.6875,0.85812,11.375,4.9547,23.75,9.1035s26.015,9.184,30.311,11.189l7.8109,3.6461-0.31094,4.1675c-0.28938,3.8785-0.0682,4.2916,3.1891,5.9576,1.925,0.98456,6.1295,2.7309,9.3433,3.8808s5.4638,2.4443,5,2.8764c-0.46379,0.43214-6.6933,1.7594-13.843,2.9494-7.15,1.19-13.287,2.4759-13.637,2.8575-0.35023,0.38166-1.8586,4.9689-3.352,10.194-1.4934,5.225-3.3277,9.9875-4.0763,10.583-0.74858,0.59579-4.6402,1.6619-8.648,2.3691-8.7883,1.5508-10.39,2.3105-11.112,5.2713-0.30556,1.252-5.3176,33.326-11.138,71.276-11.364,74.1-13.34,86.75-14.091,90.25l-0.48336,2.25h-23.512c-17.897,0-23.622-0.29852-23.973-1.25zm14.683-48.199c0.82177-1.8036,0.81279-13.73-0.0341-45.25-0.63248-23.54-1.1443-48.277-1.1373-54.969,0.007-6.6925-0.26051-12.88-0.59436-13.75-0.5144-1.3406-2.7927-1.5818-14.941-1.5818-7.8837,0-14.563,0.37089-14.843,0.8242-0.99249,1.6059,15.704,112.02,17.426,115.24,0.84746,1.5835,2.1256,1.9358,7.0223,1.9358,5.3817,0,6.0989-0.24732,7.1021-2.4491zm33.256,0.69909c0.94113-2.9962,18.585-110.88,18.585-113.64,0-1.4356-0.1125-2.6546-0.25-2.7088-1.2021-0.47433-25.771-0.85144-27.5-0.42209l-2.25,0.55883v58.314c0,32.073,0.3,58.614,0.66667,58.981,0.36666,0.36667,2.8113,0.66667,5.4326,0.66667,3.6629,0,4.8932-0.40502,5.3156-1.75z"/>
  </g>
 </g>
</svg>